<svg width="24" height="24" viewBox="0 0 24 24" fill="none" xmlns="http://www.w3.org/2000/svg">
<path d="M1.38045 1.38056C1.67737 1.08373 2.08002 0.916981 2.49987 0.916981C2.91971 0.916981 3.32236 1.08373 3.61928 1.38056L11.9999 9.76114L20.3804 1.38056C20.5265 1.22934 20.7012 1.10871 20.8944 1.02573C21.0876 0.942751 21.2953 0.899073 21.5056 0.897246C21.7158 0.895419 21.9243 0.93548 22.1189 1.01509C22.3135 1.0947 22.4902 1.21227 22.6389 1.36093C22.7876 1.5096 22.9051 1.68638 22.9848 1.88097C23.0644 2.07555 23.1044 2.28404 23.1026 2.49428C23.1008 2.70451 23.0571 2.91228 22.9741 3.10545C22.8911 3.29862 22.7705 3.47333 22.6193 3.61939L14.2387 12L22.6193 20.3806C22.9077 20.6792 23.0673 21.0791 23.0637 21.4943C23.0601 21.9094 22.8936 22.3065 22.6 22.6001C22.3064 22.8937 21.9093 23.0602 21.4942 23.0638C21.079 23.0674 20.6791 22.9078 20.3804 22.6194L11.9999 14.2388L3.61928 22.6194C3.32066 22.9078 2.92071 23.0674 2.50556 23.0638C2.09042 23.0602 1.6933 22.8937 1.39974 22.6001C1.10617 22.3065 0.939655 21.9094 0.936048 21.4943C0.93244 21.0791 1.09203 20.6792 1.38045 20.3806L9.76103 12L1.38045 3.61939C1.08362 3.32247 0.91687 2.91982 0.91687 2.49998C0.91687 2.08013 1.08362 1.67748 1.38045 1.38056V1.38056Z" fill="#2389FF"/>
</svg>
