<svg width="60" height="60" viewBox="0 0 60 60" fill="none" xmlns="http://www.w3.org/2000/svg">
<rect width="60" height="60" rx="10" fill="#2389FF" fill-opacity="0.1"/>
<path d="M49.3983 14.6619C48.82 12.8445 48.0361 11.5432 48.0029 11.4885C47.8744 11.2768 47.6098 11.1667 47.3701 11.2217C47.308 11.2358 45.8278 11.581 44.1204 12.4331C41.8153 13.583 40.2052 15.1182 39.4633 16.8718C38.8459 18.3323 38.7572 20.1177 39.1953 22.0901C38.2622 21.0488 37.2125 20.1379 36.0683 19.3711C35.7189 18.6814 34.7951 16.9834 33.3508 15.2087C32.8751 14.6245 31.96 15.3577 32.4406 15.9477C33.4138 17.1438 34.1464 18.3201 34.6045 19.1282L29.2626 18.0876L24.1872 11.1704C24.68 11.1772 25.1746 11.2248 25.6667 11.3213C27.2268 11.6265 28.7678 12.4204 30.2477 13.6807C30.8275 14.1746 31.5806 13.2756 31.0083 12.7886C29.3735 11.3965 27.6521 10.5156 25.892 10.1711C23.205 9.64574 20.0711 10.3354 16.8283 12.1665C14.4113 13.5312 12.7951 15.0303 12.7276 15.0933C12.5114 15.2952 12.4769 15.6619 12.658 15.8977C12.895 16.3835 13.7932 18.1362 15.2883 20.0232C16.1696 21.1357 17.099 22.0879 18.0605 22.8704C17.7873 23.0991 17.5215 23.3384 17.2642 23.5901C15.8901 24.9331 14.838 26.5173 14.1472 28.2493C13.5366 29.7795 13.2082 31.4258 13.1899 33.1226C13.1596 35.8972 13.9642 38.5732 15.5172 40.8618C17.0343 43.0972 19.1551 44.8135 21.6503 45.8249C22.3486 46.1074 22.7901 45.0222 22.0913 44.739C21.1873 44.3726 20.338 43.9031 19.5546 43.3447C19.6548 42.7895 19.8872 40.7915 18.5589 38.7231C18.373 38.4338 18.9289 37.2976 19.2607 36.6189C19.6032 35.9194 19.9568 35.1963 20.122 34.5154C20.2974 33.792 20.1 33.1848 19.5514 32.7588C19.1488 32.446 18.6217 32.2842 18.1573 32.1414C17.8555 32.0486 17.5134 31.9436 17.3913 31.8418C17.1396 31.6311 16.7286 30.8525 16.3983 30.2273C16.0318 29.5337 15.6829 28.8735 15.3266 28.467C16.1283 26.5647 17.4159 24.8813 19.0286 23.5935C20.5017 24.5962 22.1829 25.2881 23.97 25.4282C21.8976 27.0327 21.2271 29.0818 22.1854 31.05C23.3044 33.3484 25.6078 32.9812 27.6399 32.6577C27.9915 32.6016 28.3553 32.5437 28.7038 32.5002C28.8345 32.4839 28.8738 32.5195 28.9002 32.5427C29.3452 32.9382 29.332 34.8271 29.3224 36.2065C29.3095 38.1145 29.2973 39.9167 30.0085 40.842C30.3714 41.3137 30.8823 41.5549 31.4811 41.5549C31.8401 41.5549 32.23 41.4685 32.639 41.2932C34.4078 40.5364 36.2464 38.2585 35.9659 36.4563C35.7209 34.8806 35.5586 33.8396 35.941 33.0005C36.2946 32.2239 37.1492 31.5049 38.8325 30.5874C39.034 31.4944 39.1357 32.438 39.1252 33.406C39.0893 36.7102 37.7674 39.8027 35.4035 42.1135C32.7615 44.696 29.0483 45.9714 25.3752 45.5669C24.6268 45.4858 24.4975 46.6494 25.2469 46.7319C29.2675 47.1743 33.3325 45.7778 36.2235 42.9514C38.8117 40.4214 40.2587 37.0361 40.298 33.4185C40.3503 28.6218 37.8871 24.3723 34.1376 21.9243C34.9123 21.3723 35.4895 20.895 35.8095 20.6179C37.1766 21.5979 38.3892 22.8052 39.3981 24.2117C41.82 27.5889 42.7805 31.7058 42.1032 35.8049C40.7043 44.2666 32.6772 50.0144 24.2073 48.6162C20.1046 47.9392 16.5117 45.7068 14.0898 42.3296C11.6677 38.9526 10.7072 34.8352 11.3848 30.7363C11.5064 29.9988 10.35 29.8052 10.2278 30.5454C9.49897 34.9534 10.5323 39.3809 13.1362 43.0124C15.7405 46.6436 19.6047 49.0444 24.0162 49.7727C24.9388 49.9248 25.8624 50 26.7796 50C30.2468 50 33.6196 48.9243 36.4937 46.8665C40.1287 44.2642 42.5317 40.4038 43.2601 35.9958C43.794 32.7659 43.3808 29.5254 42.0975 26.5952C42.6898 26.4206 43.6977 26.0818 44.8016 25.531C47.1062 24.3811 48.7166 22.8459 49.4582 21.0923C50.2004 19.3381 50.1797 17.1145 49.3983 14.6619ZM15.3608 30.7742C15.7972 31.6008 16.2099 32.3821 16.6387 32.7405C16.9424 32.9941 17.3651 33.124 17.8125 33.2615C18.9587 33.6135 19.0918 33.7864 18.9819 34.2393C18.847 34.7961 18.5216 35.4612 18.2071 36.104C17.6014 37.3423 17.0294 38.5112 17.5716 39.356C18.3405 40.5532 18.4722 41.7319 18.459 42.4651C14.966 39.3179 13.5437 34.3469 14.8448 29.8289C15.0173 30.1243 15.1986 30.4675 15.3608 30.7742ZM43.7343 19.2588L42.0677 15.2231C42.8787 14.4653 43.8196 13.895 44.621 13.4934C45.3037 13.1511 45.9532 12.8953 46.4741 12.7139L43.7343 19.2588ZM47.5553 13.1682C47.7881 13.6682 48.0581 14.313 48.2888 15.0417C48.5416 15.8415 48.7738 16.8328 48.82 17.8667L44.9142 19.4768L47.5553 13.1682ZM40.5436 17.3281C40.7165 16.9194 40.9401 16.5405 41.1984 16.1907L43.0956 20.7842L41.3931 24.852C41.1539 24.345 40.8722 23.6789 40.6332 22.9224C40.1536 21.4075 39.749 19.2068 40.5436 17.3281ZM44.3007 24.4707C43.6437 24.8003 43.0167 25.0498 42.5061 25.2297L44.2729 21.0093L48.7701 19.155C48.7049 19.6584 48.5805 20.1575 48.3779 20.636C47.5836 22.5146 45.7223 23.7585 44.3007 24.4707ZM23.1542 24.1372C22.947 24.0967 22.7425 24.0471 22.5409 23.9907L29.0314 19.2368L34.3758 20.2776C32.4289 21.8103 27.691 25.0254 23.1542 24.1372ZM17.2224 20.4709C15.8344 18.9761 14.8169 17.3777 14.2327 16.3542L21.0338 17.6792L17.2224 20.4709ZM18.4236 12.6528L21.2691 16.531L14.424 15.1977C15.2858 14.5178 16.7083 13.4971 18.4236 12.6528ZM22.9658 16.8616L19.516 12.1597C20.5488 11.7356 21.6574 11.4018 22.7938 11.2534L27.5661 17.7573L22.9658 16.8616ZM22.6007 17.9844L27.4647 18.9316L21.2222 23.5037C20.045 22.9604 18.9856 22.1794 18.0585 21.3113L22.6007 17.9844ZM38.5139 29.4272C36.3996 30.5527 35.3644 31.4368 34.8733 32.5151C34.3457 33.6731 34.539 34.916 34.8065 36.6362C34.9646 37.6506 33.7581 39.5395 32.1772 40.2161C31.5923 40.4663 31.1757 40.4368 30.9385 40.1279C30.4725 39.522 30.4852 37.688 30.4952 36.2146C30.5092 34.176 30.5214 32.4155 29.6796 31.6672C29.3769 31.3982 28.9896 31.2844 28.5594 31.3372C28.1907 31.3831 27.8166 31.4426 27.4552 31.5002C25.2994 31.8435 23.9429 31.981 23.2402 30.5373C22.1016 28.1992 24.4064 26.4673 25.4502 25.8313C25.6628 25.7019 25.8599 25.5493 26.0432 25.3794C28.566 25.0781 30.9497 23.9966 33.074 22.6418C35.6209 24.1623 37.5761 26.5686 38.5139 29.4272Z" fill="#2389FF"/>
</svg>
