<svg width="60" height="60" viewBox="0 0 60 60" fill="none" xmlns="http://www.w3.org/2000/svg">
<rect width="60" height="60" rx="10" fill="#2389FF" fill-opacity="0.1"/>
<g clip-path="url(#clip0_4214_3)">
<path d="M16.3229 21.6682L15.1899 20.9725C14.914 21.4229 14.657 21.8895 14.425 22.3577L15.6198 22.9482C15.8296 22.5152 16.0675 22.0847 16.3229 21.6682Z" fill="#2389FF"/>
<path d="M13.8106 23.7438C12.6051 26.8313 12.3194 30.202 12.9874 33.4483L14.2928 33.1818C13.6766 30.1863 13.9401 27.0767 15.052 24.2276L13.8106 23.7438Z" fill="#2389FF"/>
<path d="M43.9283 11.3363C43.6761 11.2234 43.38 11.2778 43.1845 11.473L41.2176 13.4402C33.9902 8.55171 24.4301 8.90182 17.5802 14.3064L18.4093 15.3502C24.956 10.1858 34.1317 9.98079 40.9023 14.8482C41.1668 15.0405 41.5319 15.0125 41.7639 14.7818L42.8874 13.657L42.4784 20.6084L35.5266 21.0171L36.4595 20.0842C36.6059 19.9378 36.6762 19.7315 36.6492 19.5262C36.6225 19.3209 36.5015 19.1396 36.3222 19.0358C32.1456 16.6345 26.9707 16.7972 22.9532 19.4562L23.6944 20.5638C27.027 18.3581 31.2719 18.0594 34.8807 19.7767L33.3449 21.3096C33.1543 21.5003 33.0973 21.7866 33.2005 22.0355C33.3036 22.2848 33.5464 22.4471 33.8161 22.4471C33.8291 22.4478 33.8421 22.4478 33.8551 22.4471L43.148 21.9005C43.4851 21.881 43.7542 21.6122 43.7744 21.2748L44.3207 11.9816C44.336 11.706 44.1802 11.4496 43.9283 11.3363Z" fill="#2389FF"/>
<path d="M41.7092 46.1844L40.927 45.1054C34.4151 49.841 25.595 49.8466 19.0769 45.1194C18.8124 44.9271 18.4473 44.9554 18.2153 45.1861L17.0918 46.3097L17.5001 39.3579L24.4526 38.9492L23.5197 39.8824C23.3733 40.0288 23.3033 40.2348 23.3303 40.4398C23.3573 40.6451 23.478 40.826 23.657 40.9298C27.8225 43.3233 32.9805 43.1687 36.9954 40.5299L36.2535 39.4239C32.9245 41.6115 28.6946 41.9017 25.0978 40.1896L26.6303 38.6567C26.8233 38.4608 26.876 38.1663 26.7631 37.9158C26.6499 37.6649 26.3944 37.5094 26.1198 37.524L16.8272 38.0703C16.4901 38.0902 16.2207 38.359 16.2009 38.696L15.6542 47.9896C15.6386 48.2655 15.7948 48.5226 16.047 48.6358C16.2991 48.749 16.5949 48.6947 16.7905 48.4992L18.7577 46.5322C25.7108 51.2786 34.8967 51.1416 41.7053 46.1902L41.7092 46.1844Z" fill="#2389FF"/>
<path d="M14.135 42.1665L15.1906 41.3531C10.1943 34.8064 10.0577 25.7654 14.8535 19.0706C15.0458 18.8058 15.0175 18.4407 14.7868 18.209L13.6632 17.0855L20.615 17.4945L21.0234 24.4463L20.0905 23.5134C19.9441 23.3666 19.7378 23.2967 19.5325 23.3234C19.3272 23.3504 19.1459 23.4714 19.0421 23.6504C16.6411 27.8263 16.8032 32.9999 19.4609 37.0174L20.5682 36.2765C18.363 32.9439 18.065 28.6997 19.7833 25.0918L21.3159 26.6247C21.5118 26.8199 21.8079 26.8743 22.06 26.761C22.3122 26.6478 22.4684 26.3901 22.4521 26.1142L21.9058 16.8216C21.886 16.4842 21.6172 16.2151 21.2801 16.1949L11.9865 15.6486C11.7109 15.634 11.4545 15.7898 11.3403 16.041C11.2258 16.2951 11.2814 16.5932 11.4796 16.7887L13.4465 18.756C8.63218 25.8997 8.90908 35.3179 14.135 42.1665Z" fill="#2389FF"/>
<path d="M38.9578 35.5201L39.8907 36.4532C40.0371 36.5997 40.2434 36.6696 40.4487 36.6429C40.654 36.6159 40.8352 36.4952 40.939 36.3159C43.2024 32.4 43.2092 27.5752 40.9576 23.6527L39.8034 24.3191C41.664 27.5583 41.8111 31.5058 40.1965 34.8745L38.664 33.3384C38.4678 33.1454 38.1736 33.093 37.9227 33.2059C37.6719 33.3188 37.5163 33.5743 37.531 33.8489L38.0776 43.1415C38.0971 43.4789 38.3659 43.748 38.7033 43.7682L47.9966 44.3145H48.0359C48.3054 44.3141 48.5481 44.1518 48.6509 43.9029C48.7537 43.6539 48.6968 43.3673 48.5064 43.1769L46.5392 41.2097C51.3535 34.0659 51.0766 24.6471 45.8507 17.7985L44.7951 18.6122C49.7914 25.1586 49.9284 34.2 45.1326 40.8947C44.9403 41.1592 44.9686 41.5243 45.1993 41.7563L46.316 42.8812L39.3642 42.4718L38.9578 35.5201Z" fill="#2389FF"/>
<path d="M29.9896 33.3153C31.8296 33.3153 33.3215 31.8234 33.3215 29.9833C33.3215 28.143 31.8296 26.6514 29.9896 26.6514C28.1496 26.6514 26.6577 28.143 26.6577 29.9833C26.66 31.8224 28.1502 33.313 29.9896 33.3153ZM29.9896 27.9842C31.0936 27.9842 31.9887 28.879 31.9887 29.9833C31.9887 31.0874 31.0936 31.9825 29.9896 31.9825C28.8856 31.9825 27.9904 31.0874 27.9904 29.9833C27.9904 28.879 28.8856 27.9842 29.9896 27.9842Z" fill="#2389FF"/>
<path d="M22.6594 27.9842C22.2914 27.9842 21.993 28.2826 21.993 28.6506V31.3161C21.993 31.6841 22.2914 31.9825 22.6594 31.9825H23.6362C23.7537 32.3544 23.9033 32.7156 24.0842 33.0611L23.3925 33.7529C23.1322 34.0132 23.1322 34.4349 23.3925 34.6952L25.2777 36.5804C25.5377 36.8404 25.9597 36.8404 26.2197 36.5804L26.9115 35.8893C27.2574 36.0699 27.6182 36.2196 27.9904 36.3364V37.3135C27.9904 37.6815 28.2888 37.9799 28.6568 37.9799H31.3224C31.6904 37.9799 31.9887 37.6815 31.9887 37.3135V36.3364C32.361 36.2193 32.7218 36.0693 33.0677 35.8887L33.7595 36.5804C34.0195 36.8404 34.4415 36.8404 34.7015 36.5804L36.5867 34.6952C36.847 34.4349 36.847 34.0132 36.5867 33.7529L35.895 33.0611C36.0759 32.7156 36.2255 32.3544 36.343 31.9825H37.3198C37.6878 31.9825 37.9862 31.6841 37.9862 31.3161V28.6506C37.9862 28.2826 37.6878 27.9842 37.3198 27.9842H36.343C36.2255 27.612 36.0755 27.2508 35.8943 26.9052L36.5867 26.2135C36.847 25.9532 36.847 25.5315 36.5867 25.2712L34.7015 23.3859C34.4415 23.1259 34.0195 23.1259 33.7595 23.3859L33.0677 24.077C32.7218 23.8964 32.361 23.7471 31.9887 23.6299V22.6531C31.9887 22.2851 31.6904 21.9868 31.3224 21.9868H28.6568C28.2888 21.9868 27.9904 22.2851 27.9904 22.6531V23.6299C27.6182 23.7471 27.2574 23.8971 26.9115 24.0777L26.2197 23.3859C25.9597 23.1259 25.5377 23.1259 25.2777 23.3859L23.3925 25.2712C23.1322 25.5315 23.1322 25.9532 23.3925 26.2135L24.0836 26.9052C23.903 27.2511 23.7533 27.612 23.6362 27.9842H22.6594ZM24.1454 29.317C24.4568 29.3173 24.7265 29.1019 24.7959 28.7983C24.9286 28.2142 25.1603 27.6569 25.4801 27.1506C25.6464 26.887 25.608 26.5437 25.3874 26.3234L24.8066 25.7423L25.7489 24.8L26.3297 25.3811C26.55 25.6014 26.8933 25.6401 27.1568 25.4739C27.6631 25.1537 28.2205 24.9223 28.8049 24.7896C29.1081 24.7203 29.3235 24.4502 29.3232 24.1392V23.3195H30.656V24.1392C30.6557 24.4502 30.8711 24.7203 31.1743 24.7896C31.7587 24.9223 32.3158 25.1537 32.8224 25.4739C33.0859 25.6401 33.4292 25.6014 33.6495 25.3811L34.2303 24.8L35.1726 25.7423L34.5915 26.3234C34.3715 26.5434 34.3331 26.8864 34.4991 27.1499C34.8189 27.6562 35.0503 28.2136 35.1833 28.7976C35.252 29.1012 35.5217 29.3166 35.8331 29.317H36.6534V30.6497H35.8331C35.5217 30.6497 35.252 30.8651 35.1833 31.1687C35.0503 31.7528 34.8189 32.3101 34.4991 32.8168C34.3331 33.08 34.3715 33.4229 34.5915 33.6429L35.1726 34.224L34.2303 35.1663L33.6495 34.5852C33.4292 34.3649 33.0859 34.3265 32.8224 34.4925C32.3158 34.8126 31.7587 35.044 31.1743 35.1771C30.8711 35.2461 30.6557 35.5161 30.656 35.8275V36.6471H29.3232V35.8275C29.3235 35.5161 29.1081 35.2461 28.8049 35.1771C28.2205 35.044 27.6631 34.8126 27.1568 34.4925C26.8933 34.3265 26.55 34.3649 26.3297 34.5852L25.7489 35.1663L24.8066 34.224L25.3874 33.6429C25.608 33.4229 25.6464 33.0793 25.4801 32.8161C25.1603 32.3095 24.9286 31.7521 24.7959 31.168C24.7265 30.8645 24.4568 30.6494 24.1454 30.6497H23.3258V29.317H24.1454Z" fill="#2389FF"/>
</g>
<defs>
<clipPath id="clip0_4214_3">
<rect width="40" height="40" fill="white" transform="translate(10 10)"/>
</clipPath>
</defs>
</svg>
