<svg width="60" height="60" viewBox="0 0 60 60" fill="none" xmlns="http://www.w3.org/2000/svg">
<rect width="60" height="60" rx="10" fill="#2389FF" fill-opacity="0.1"/>
<path d="M26.6425 14.9508C27.0792 13.5626 28.2795 12.5 29.7978 12.5C31.3162 12.5 32.5165 13.5626 32.9532 14.9508C33.4725 14.5752 34.1017 14.3518 34.7978 14.3518C36.7192 14.3518 38.1312 16.0534 38.1312 17.963V18.5345C38.6138 18.2318 39.1795 18.0556 39.7978 18.0556C41.7192 18.0556 43.1312 19.7571 43.1312 21.6667V26.6667C43.1312 27.1268 42.758 27.5 42.2978 27.5C41.8375 27.5 41.4645 27.1268 41.4645 26.6667V21.6667C41.4645 20.508 40.6378 19.7222 39.7978 19.7222C38.9577 19.7222 38.1312 20.508 38.1312 21.6667V25C38.1312 25.4602 37.758 25.8333 37.2978 25.8333C36.8375 25.8333 36.4645 25.4602 36.4645 25V17.963C36.4645 16.8043 35.6378 16.0185 34.7978 16.0185C33.9577 16.0185 33.1312 16.8043 33.1312 17.963V27.2222C33.1312 27.6825 32.758 28.0555 32.2978 28.0555C31.8375 28.0555 31.4645 27.6825 31.4645 27.2222V16.1111C31.4645 14.9525 30.6378 14.1667 29.7978 14.1667C28.9577 14.1667 28.1312 14.9525 28.1312 16.1111V29.074C28.1312 29.5343 27.758 29.9073 27.2978 29.9073C26.8375 29.9073 26.4645 29.5343 26.4645 29.074V17.963C26.4645 16.8043 25.6379 16.0185 24.7978 16.0185C23.9577 16.0185 23.1311 16.8043 23.1311 17.963V33.7037C23.1311 34.052 22.9146 34.3635 22.5882 34.4848C22.2618 34.6062 21.8944 34.5118 21.6669 34.2482L16.9764 28.812C16.3309 28.101 15.3285 28.103 14.685 28.818C13.9939 29.5858 13.9939 30.8635 14.685 31.6313C14.6982 31.646 14.7108 31.6612 14.723 31.6767L18.8026 36.9135L21.1974 40.1693C21.2162 40.195 21.2335 40.2215 21.2493 40.249C23.2568 43.7543 26.7068 45.8333 30.3688 45.8333H30.6312C31.0913 45.8333 31.4645 46.2065 31.4645 46.6667C31.4645 47.1268 31.0913 47.5 30.6312 47.5H30.3688C26.0683 47.5 22.1064 45.0675 19.8271 41.1193L17.4667 37.9105L13.4252 32.7228C12.1847 31.3197 12.1917 29.0968 13.4462 27.703C14.7535 26.2504 16.9132 26.2504 18.2205 27.703L18.2322 27.716L21.4645 31.4623V17.963C21.4645 16.0534 22.8764 14.3518 24.7978 14.3518C25.4939 14.3518 26.1231 14.5752 26.6425 14.9508Z" fill="#2389FF"/>
<path d="M41.8488 37.6653C42.1743 37.34 42.1745 36.8123 41.8492 36.4867C41.5238 36.1612 40.9963 36.161 40.6707 36.4863L38.3368 38.8183L36.7283 37.1915C36.4048 36.8642 35.8772 36.8612 35.5498 37.1848C35.2227 37.5083 35.2197 38.036 35.5432 38.3633L37.7407 40.586C37.8967 40.7437 38.109 40.8327 38.3308 40.8333C38.5525 40.834 38.7655 40.7463 38.9223 40.5895L41.8488 37.6653Z" fill="#2389FF"/>
<path fill-rule="evenodd" clip-rule="evenodd" d="M37.727 29.2925C38.1252 29.193 38.5415 29.193 38.9397 29.2925L45.2022 30.8582C45.5732 30.951 45.8334 31.2844 45.8334 31.6667V36.6667C45.8334 40.0765 44.2279 43.2873 41.5 45.3333L39.8334 46.5833C38.9445 47.25 37.7222 47.25 36.8334 46.5833L35.1667 45.3333C32.4389 43.2873 30.8334 40.0765 30.8334 36.6667V31.6667C30.8334 31.2844 31.0935 30.951 31.4645 30.8582L37.727 29.2925ZM38.5355 30.9095C38.4027 30.8764 38.264 30.8764 38.1312 30.9095L32.5 32.3174V36.6667C32.5 39.5518 33.8585 42.2688 36.1667 44L37.8334 45.25C38.1297 45.4722 38.537 45.4722 38.8334 45.25L40.5 44C42.8082 42.2688 44.1667 39.5518 44.1667 36.6667V32.3174L38.5355 30.9095Z" fill="#2389FF"/>
</svg>
