<svg width="80" height="89" viewBox="0 0 80 89" fill="none" xmlns="http://www.w3.org/2000/svg">
<path d="M116.337 15.875C114.634 10.0576 112.327 5.89227 112.229 5.71721C111.85 5.03966 111.071 4.68721 110.365 4.86305C110.183 4.90837 105.825 6.0134 100.797 8.74079C94.0107 12.4216 89.2698 17.3356 87.0857 22.949C85.2678 27.6239 85.0067 33.3389 86.2965 39.6525C83.5492 36.3195 80.4586 33.4038 77.0897 30.9491C76.061 28.7414 73.3409 23.3062 69.0886 17.6255C67.6879 15.7554 64.9938 18.1022 66.4088 19.9911C69.2742 23.8196 71.4309 27.5848 72.7798 30.1715L57.0516 26.8408L42.1083 4.69893C43.5593 4.72082 45.0154 4.87321 46.4642 5.18189C51.0576 6.15875 55.5948 8.70015 59.9522 12.7342C61.6594 14.3151 63.8765 11.4377 62.1917 9.87864C57.3782 5.42259 52.3101 2.60298 47.1275 1.5003C39.2163 -0.181457 29.9893 2.02625 20.4415 7.88741C13.3252 12.2559 8.5664 17.0543 8.36785 17.2559C7.73118 17.9022 7.62974 19.076 8.16282 19.8309C8.86063 21.386 11.5051 26.9963 15.9071 33.0365C18.502 36.5977 21.2386 39.6455 24.0694 42.1502C23.2651 42.8824 22.4824 43.6483 21.7249 44.454C17.679 48.753 14.5813 53.824 12.5475 59.3679C10.7498 64.2663 9.7829 69.5359 9.72894 74.9672C9.63974 83.8488 12.0087 92.4147 16.5812 99.7404C21.0479 106.896 27.2923 112.39 34.6388 115.627C36.6948 116.531 37.9948 113.058 35.9373 112.151C33.2755 110.978 30.7749 109.475 28.4685 107.688C28.7635 105.911 29.4476 99.5153 25.537 92.8945C24.9895 91.9685 26.6261 88.3314 27.6031 86.1589C28.6117 83.9199 29.6527 81.6052 30.139 79.4256C30.6555 77.11 30.0742 75.1665 28.4592 73.8028C27.2736 72.8017 25.7219 72.2836 24.3543 71.8264C23.4658 71.5294 22.4587 71.1934 22.099 70.8675C21.358 70.1931 20.148 67.7009 19.1754 65.6995C18.0963 63.4793 17.069 61.3662 16.0201 60.065C18.3804 53.9757 22.1716 48.5873 26.9197 44.4649C31.2569 47.6745 36.2071 49.8893 41.4688 50.3378C35.3668 55.4738 33.3928 62.0328 36.2143 68.3331C39.5091 75.6901 46.2909 74.5147 52.2741 73.4792C53.3093 73.2995 54.3805 73.1143 55.4064 72.9752C55.7912 72.9228 55.9071 73.0369 55.9847 73.1112C57.2948 74.3772 57.2559 80.4236 57.2279 84.839C57.1897 90.9463 57.1538 96.7152 59.2479 99.6771C60.3162 101.187 61.8205 101.959 63.5837 101.959C64.6405 101.959 65.7887 101.682 66.993 101.121C72.2007 98.6986 77.6141 91.4074 76.7883 85.6384C76.0667 80.5947 75.589 77.2624 76.7149 74.5765C77.7559 72.0905 80.2723 69.7891 85.2282 66.8522C85.8217 69.7555 86.121 72.7759 86.0901 75.8745C85.9843 86.4512 82.0924 96.3503 75.1322 103.747C67.3534 112.014 56.4207 116.096 45.606 114.801C43.4025 114.542 43.0219 118.266 45.2283 118.53C57.066 119.947 69.0346 115.476 77.5465 106.429C85.1671 98.3306 89.4274 87.4944 89.5432 75.9144C89.6971 60.5605 82.4449 46.9579 71.405 39.1219C73.6862 37.355 75.3855 35.8272 76.3279 34.9402C80.3529 38.0771 83.9233 41.9415 86.8937 46.4437C94.0243 57.254 96.8523 70.4322 94.8581 83.5534C90.7396 110.639 67.1052 129.038 42.1673 124.562C30.0879 122.395 19.5092 115.249 12.3785 104.439C5.2471 93.6291 2.41915 80.4493 4.41404 67.3289C4.7723 64.9681 1.36739 64.3483 1.00769 66.7178C-1.13827 80.8276 1.90406 94.9998 9.57068 106.624C17.2387 118.248 28.616 125.933 41.6047 128.264C44.3212 128.751 47.0405 128.991 49.7411 128.991C59.9493 128.991 69.8799 125.548 78.3422 118.961C89.0446 110.631 96.1199 98.2743 98.2645 84.1645C99.8363 73.8254 98.6198 63.4528 94.8416 54.0733C96.5854 53.5146 99.5529 52.4299 102.803 50.6668C109.588 46.986 114.33 42.072 116.513 36.4586C118.699 30.8436 118.638 23.7258 116.337 15.875ZM16.1208 67.4501C17.4056 70.0962 18.6207 72.5969 19.8832 73.7442C20.7774 74.5561 22.022 74.9719 23.3392 75.4119C26.7139 76.5388 27.106 77.0921 26.7823 78.5417C26.3852 80.3243 25.4269 82.4531 24.501 84.5107C22.7177 88.4744 21.0336 92.2162 22.6299 94.9201C24.8938 98.7526 25.2816 102.526 25.2427 104.872C14.9582 94.7982 10.7706 78.8864 14.6014 64.4241C15.1093 65.3697 15.6431 66.4685 16.1208 67.4501ZM99.6608 30.5896L94.7538 17.6716C97.1415 15.2459 99.9119 13.4203 102.271 12.1348C104.281 11.0391 106.194 10.2201 107.727 9.6395L99.6608 30.5896ZM110.911 11.0939C111.596 12.6943 112.391 14.7582 113.07 17.091C113.815 19.6511 114.498 22.824 114.634 26.1336L103.135 31.2875L110.911 11.0939ZM90.2662 24.4096C90.7755 23.1014 91.4338 21.8885 92.1942 20.7687L97.7803 35.4724L92.7675 48.4935C92.0632 46.8704 91.2338 44.7385 90.5302 42.3166C89.118 37.4675 87.9267 30.4232 90.2662 24.4096ZM101.328 47.2728C99.3939 48.3278 97.5479 49.1265 96.0444 49.7025L101.246 36.1929L114.488 30.2575C114.296 31.8689 113.929 33.4663 113.333 34.998C110.994 41.0115 105.514 44.9932 101.328 47.2728ZM39.0667 46.2053C38.4566 46.0756 37.8545 45.9169 37.261 45.7364L56.3711 30.5193L72.1064 33.8508C66.3743 38.757 52.4245 49.0484 39.0667 46.2053ZM21.6019 34.4697C17.515 29.6847 14.5194 24.5683 12.7993 21.2923L32.8238 25.5334L21.6019 34.4697ZM25.1384 9.44413L33.5165 21.8581L13.3626 17.5904C15.8999 15.4139 20.0883 12.1465 25.1384 9.44413ZM38.512 22.9162L28.3549 7.86552C31.3958 6.50808 34.6597 5.43979 38.0056 4.96464L52.0568 25.7835L38.512 22.9162ZM37.4373 26.5103L51.7583 29.5424L33.3784 44.1774C29.9124 42.4385 26.793 39.9386 24.0637 37.1596L37.4373 26.5103ZM84.2902 63.1386C78.0652 66.7413 75.0171 69.571 73.5711 73.0229C72.018 76.7295 72.587 80.708 73.3747 86.2144C73.8402 89.4615 70.2878 95.5078 65.6333 97.6733C63.9111 98.4744 62.6845 98.3798 61.986 97.3912C60.6141 95.4516 60.6515 89.581 60.681 84.8647C60.722 78.3393 60.7579 72.704 58.2796 70.3088C57.3883 69.4476 56.248 69.0834 54.9812 69.2522C53.8956 69.3991 52.7942 69.5898 51.7302 69.7742C45.383 70.873 41.3889 71.313 39.3199 66.692C35.9675 59.2077 42.7536 53.6638 45.8269 51.6281C46.4527 51.2139 47.0333 50.7254 47.5728 50.1815C55.0006 49.2172 62.0191 45.7552 68.2735 41.4187C75.7725 46.2858 81.5291 53.9882 84.2902 63.1386Z" fill="#2389FF" fill-opacity="0.05"/>
</svg>
