<svg width="4" height="8" viewBox="0 0 4 8" fill="none" xmlns="http://www.w3.org/2000/svg">
<path d="M0.756068 7.49991C0.845872 7.49955 0.93468 7.48016 1.01716 7.44288C1.09965 7.40561 1.17411 7.35123 1.23607 7.28301L3.80943 4.48418C3.93158 4.35339 4 4.17754 4 3.99439C4 3.81124 3.93158 3.63539 3.80943 3.5046L1.14274 0.705778C1.08058 0.640538 1.00678 0.588788 0.925568 0.55348C0.844352 0.518173 0.757306 0.5 0.669399 0.5C0.581493 0.5 0.494446 0.518173 0.413231 0.55348C0.332016 0.588788 0.258222 0.640538 0.196062 0.705778C0.133903 0.771017 0.0845948 0.848468 0.0509541 0.933707C0.0173138 1.01895 -9.0032e-07 1.11031 -8.92254e-07 1.20257C-8.84188e-07 1.29483 0.0173138 1.38619 0.0509542 1.47143C0.0845948 1.55667 0.133903 1.63412 0.196062 1.69936L2.39608 4.00139L0.276063 6.31042C0.151895 6.44151 0.0821999 6.61885 0.0821999 6.80371C0.0821999 6.98856 0.151895 7.1659 0.276063 7.297C0.339148 7.36269 0.41411 7.41448 0.496541 7.44933C0.578973 7.48418 0.667211 7.50138 0.756068 7.49991Z" fill="#CACCD2"/>
</svg>
