<svg width="107" height="16" viewBox="0 0 107 16" fill="none" xmlns="http://www.w3.org/2000/svg">
<path d="M7.5 12.2197L12.135 15.2046L10.905 9.57889L15 5.79375L9.6075 5.2976L7.5 0L5.3925 5.2976L0 5.79375L4.0875 9.57889L2.865 15.2046L7.5 12.2197Z" fill="#FFC700"/>
<path d="M30.5 12.2197L35.135 15.2046L33.905 9.57889L38 5.79375L32.6075 5.2976L30.5 0L28.3925 5.2976L23 5.79375L27.0875 9.57889L25.865 15.2046L30.5 12.2197Z" fill="#FFC700"/>
<path d="M53.5 12.2197L58.135 15.2046L56.905 9.57889L61 5.79375L55.6075 5.2976L53.5 0L51.3925 5.2976L46 5.79375L50.0875 9.57889L48.865 15.2046L53.5 12.2197Z" fill="#FFC700"/>
<path d="M76.5 12.2197L81.135 15.2046L79.905 9.57889L84 5.79375L78.6075 5.2976L76.5 0L74.3925 5.2976L69 5.79375L73.0875 9.57889L71.865 15.2046L76.5 12.2197Z" fill="#FFC700"/>
<path d="M99.5 12.2197L104.135 15.2046L102.905 9.57889L107 5.79375L101.608 5.2976L99.5 0L97.3925 5.2976L92 5.79375L96.0875 9.57889L94.865 15.2046L99.5 12.2197Z" fill="#FFC700"/>
</svg>
