<svg width="14" height="20" viewBox="0 0 14 20" fill="none" xmlns="http://www.w3.org/2000/svg">
<path d="M6.01582 14.0871C4.46535 13.9254 3.06738 13.5436 1.87049 12.6074C1.72198 12.491 1.56865 12.3787 1.43313 12.2486C0.909251 11.7455 0.856466 11.1693 1.271 10.5754C1.62562 10.0673 2.22093 9.93131 2.83969 10.2231C2.9595 10.2797 3.07366 10.3502 3.183 10.4261C5.4136 11.9587 8.47788 12.001 10.7169 10.495C10.9387 10.3249 11.1758 10.1862 11.4506 10.1154C11.985 9.97823 12.4833 10.1745 12.77 10.642C13.0977 11.176 13.0935 11.6971 12.6898 12.1116C12.0706 12.7472 11.326 13.2069 10.4986 13.5278C9.71624 13.8311 8.85932 13.9838 8.01119 14.0852C8.13917 14.2245 8.1995 14.293 8.27952 14.3735C9.43116 15.5305 10.5878 16.6828 11.7357 17.8435C12.1268 18.2389 12.2085 18.7293 11.9931 19.1893C11.7577 19.692 11.2307 20.0227 10.7139 19.9873C10.3865 19.9647 10.1312 19.8018 9.90434 19.5732C9.03527 18.6987 8.14986 17.8403 7.29838 16.9493C7.05058 16.6901 6.93139 16.7392 6.71271 16.9641C5.8384 17.8642 4.94985 18.7505 4.05606 19.6317C3.65472 20.0274 3.17714 20.0986 2.7117 19.8726C2.21695 19.6327 1.90212 19.1277 1.92642 18.6202C1.94317 18.2768 2.112 18.0146 2.34765 17.7794C3.48736 16.6413 4.62392 15.5004 5.7609 14.3605C5.8361 14.2846 5.90627 14.2042 6.01582 14.0871Z" fill="white"/>
<path d="M6.96037 10.123C4.19437 10.1136 1.92628 7.8206 1.94241 5.0502C1.95833 2.24923 4.22789 -0.00797447 7.02111 -0.000224242C9.81999 0.00731652 12.0665 2.29699 12.0525 5.12708C12.0382 7.89182 9.75443 10.1327 6.96037 10.123ZM9.47416 5.05691C9.46935 3.68135 8.37384 2.58626 7.001 2.585C5.61664 2.58354 4.51129 3.69852 4.52198 5.08665C4.53224 6.45698 5.63717 7.54431 7.01378 7.53929C8.3862 7.53447 9.47877 6.43226 9.47416 5.05691Z" fill="white"/>
</svg>
