<svg width="20" height="12" viewBox="0 0 20 12" fill="none" xmlns="http://www.w3.org/2000/svg">
<path d="M19.8216 10.4726C19.7678 10.3825 19.4353 9.65999 17.8352 8.17488C16.1601 6.61977 16.3851 6.87228 18.4027 4.18333C19.6316 2.54571 20.1229 1.54564 19.9691 1.11811C19.8228 0.710576 18.919 0.818084 18.919 0.818084L15.9138 0.835586C15.9138 0.835586 15.6913 0.805583 15.525 0.904341C15.3638 1.00185 15.26 1.22686 15.26 1.22686C15.26 1.22686 14.7837 2.49446 14.1487 3.57204C12.8098 5.84596 12.2735 5.96597 12.0548 5.82471C11.546 5.49593 11.6735 4.50211 11.6735 3.79706C11.6735 1.59314 12.0073 0.674324 11.0222 0.436806C10.6947 0.35805 10.4547 0.305546 9.61834 0.296796C8.54577 0.285545 7.63695 0.300546 7.12316 0.551814C6.78064 0.719327 6.51687 1.09311 6.67813 1.11436C6.87689 1.14061 7.32693 1.23562 7.56569 1.56064C7.87447 1.97942 7.86322 2.92199 7.86322 2.92199C7.86322 2.92199 8.04073 5.51593 7.44944 5.83846C7.04316 6.05972 6.48687 5.60844 5.29303 3.54454C4.68173 2.48821 4.2192 1.31937 4.2192 1.31937C4.2192 1.31937 4.13044 1.10186 3.97168 0.985597C3.77917 0.844336 3.50915 0.799333 3.50915 0.799333L0.651439 0.816834C0.651439 0.816834 0.222658 0.829336 0.0651465 1.0156C-0.0748637 1.18186 0.0538957 1.52439 0.0538957 1.52439C0.0538957 1.52439 2.29156 6.75853 4.82424 9.39747C7.14816 11.8164 9.78586 11.6576 9.78586 11.6576H10.9809C10.9809 11.6576 11.3422 11.6176 11.526 11.4189C11.696 11.2364 11.6897 10.8938 11.6897 10.8938C11.6897 10.8938 11.666 9.28996 12.411 9.0537C13.1449 8.82118 14.0874 10.6038 15.0862 11.2901C15.8413 11.8089 16.4151 11.6951 16.4151 11.6951L19.0865 11.6576C19.0865 11.6576 20.4841 11.5714 19.8216 10.4726Z" fill="white"/>
</svg>
