<svg width="40" height="40" viewBox="0 0 40 40" fill="none" xmlns="http://www.w3.org/2000/svg">
<circle cx="20" cy="20" r="20" fill="#2389FF"/>
<path d="M15.9997 26.5428C14.8948 26.5428 14.0098 27.4681 14.0098 28.6107C14.0098 29.7532 14.8948 30.6785 15.9997 30.6785C17.1047 30.6785 17.9998 29.7532 17.9998 28.6107C17.9998 27.4681 17.1047 26.5428 15.9997 26.5428Z" fill="white"/>
<path d="M17.1 21.3732H24.55C25.3 21.3732 25.955 20.9441 26.3 20.3083L29.875 13.5981C29.955 13.4533 30 13.2827 30 13.1018C30 12.5279 29.55 12.0679 29 12.0679H14.215L13.265 10H10V12.0679H12L15.595 19.9102L14.245 22.4433C14.09 22.7432 14 23.0792 14 23.4411C14 24.5835 14.895 25.5089 16 25.5089H28V23.441H16.425C16.285 23.441 16.175 23.3273 16.175 23.1826C16.175 23.136 16.185 23.0947 16.205 23.0585L17.1 21.3732Z" fill="white"/>
<path d="M25.9997 26.5428C24.8948 26.5428 24.0098 27.4681 24.0098 28.6107C24.0098 29.7532 24.8948 30.6785 25.9997 30.6785C27.1048 30.6785 27.9998 29.7531 27.9998 28.6107C27.9998 27.4682 27.1048 26.5428 25.9997 26.5428Z" fill="white"/>
</svg>
