<svg width="107" height="15" viewBox="0 0 107 15" fill="none" xmlns="http://www.w3.org/2000/svg">
<path d="M7.5 11.874L12.135 14.7744L10.905 9.30788L15 5.62983L9.6075 5.14772L7.5 0L5.3925 5.14772L0 5.62983L4.0875 9.30788L2.865 14.7744L7.5 11.874Z" fill="#FFC700"/>
<path d="M30.5 11.874L35.135 14.7744L33.905 9.30788L38 5.62983L32.6075 5.14772L30.5 0L28.3925 5.14772L23 5.62983L27.0875 9.30788L25.865 14.7744L30.5 11.874Z" fill="#FFC700"/>
<path d="M53.5 11.874L58.135 14.7744L56.905 9.30788L61 5.62983L55.6075 5.14772L53.5 0L51.3925 5.14772L46 5.62983L50.0875 9.30788L48.865 14.7744L53.5 11.874Z" fill="#FFC700"/>
<path d="M76.5 11.874L81.135 14.7744L79.905 9.30788L84 5.62983L78.6075 5.14772L76.5 0L74.3925 5.14772L69 5.62983L73.0875 9.30788L71.865 14.7744L76.5 11.874Z" fill="#FFC700"/>
<path d="M99.5 11.874L104.135 14.7744L102.905 9.30788L107 5.62983L101.608 5.14772L99.5 0L97.3925 5.14772L92 5.62983L96.0875 9.30788L94.865 14.7744L99.5 11.874Z" fill="#FFC700"/>
</svg>
