<svg width="35" height="39" viewBox="0 0 35 39" fill="none" xmlns="http://www.w3.org/2000/svg">
<path d="M13 25.6788C11.895 25.6788 11.01 26.5999 11.01 27.7371C11.01 28.8743 11.895 29.7953 13 29.7953C14.105 29.7953 15 28.8743 15 27.7371C15 26.5999 14.105 25.6788 13 25.6788Z" fill="#2389FF"/>
<path d="M14.1 20.5333H21.55C22.3 20.5333 22.955 20.1062 23.3 19.4733L26.875 12.7943C26.955 12.6502 27 12.4804 27 12.3003C27 11.7292 26.55 11.2712 26 11.2712H11.215L10.265 9.21298H7V11.2712H9.00001L12.595 19.0771L11.245 21.5984C11.09 21.8969 11 22.2313 11 22.5915C11 23.7287 11.895 24.6497 13 24.6497H25V22.5915H13.425C13.285 22.5915 13.175 22.4783 13.175 22.3342C13.175 22.2879 13.185 22.2468 13.205 22.2107L14.1 20.5333Z" fill="#2389FF"/>
<path d="M23 25.6788C21.895 25.6788 21.01 26.5999 21.01 27.7371C21.01 28.8743 21.895 29.7953 23 29.7953C24.105 29.7953 25 28.8742 25 27.7371C25 26.5999 24.105 25.6788 23 25.6788Z" fill="#2389FF"/>
<rect y="0.980042" width="35" height="37.0483" rx="10" fill="#2389FF" fill-opacity="0.1"/>
</svg>
