<svg width="19" height="19" viewBox="0 0 19 19" fill="none" xmlns="http://www.w3.org/2000/svg">
<path d="M7.91667 13.4583V11.0833H2.375V7.91667H7.91667V5.54167L11.875 9.5L7.91667 13.4583ZM7.91667 1.58334H15.0417C15.4616 1.58334 15.8643 1.75015 16.1613 2.04708C16.4582 2.34402 16.625 2.74674 16.625 3.16667V15.8333C16.625 16.2533 16.4582 16.656 16.1613 16.9529C15.8643 17.2499 15.4616 17.4167 15.0417 17.4167H7.91667C7.49674 17.4167 7.09401 17.2499 6.79708 16.9529C6.50015 16.656 6.33333 16.2533 6.33333 15.8333V14.25H7.91667V15.8333H15.0417V3.16667H7.91667V4.75H6.33333V3.16667C6.33333 2.74674 6.50015 2.34402 6.79708 2.04708C7.09401 1.75015 7.49674 1.58334 7.91667 1.58334Z" fill="#304560"/>
</svg>
